<svg width="24" height="24" viewBox="0 0 24 24" fill="none" xmlns="http://www.w3.org/2000/svg">
<path fill-rule="evenodd" clip-rule="evenodd" d="M11.9255 6.096C10.9716 6.97798 10.3297 8.14573 10.0964 9.42375C9.86303 10.7018 10.0508 12.021 10.6315 13.1832C11.2121 14.3453 12.1543 15.2876 13.3164 15.8684C14.4785 16.4492 15.7977 16.6372 17.0757 16.404C16.3921 17.0361 15.5708 17.5004 14.6768 17.7602C13.7828 18.02 12.8405 18.0682 11.9247 17.901C11.0088 17.7338 10.1444 17.3557 9.39988 16.7967C8.65536 16.2377 8.05114 15.5131 7.63502 14.6803C7.2189 13.8474 7.0023 12.9292 7.00236 11.9982C7.00242 11.0672 7.21914 10.1489 7.63537 9.31614C8.0516 8.48334 8.65592 7.75884 9.40052 7.19995C10.1451 6.64105 11.0096 6.2631 11.9255 6.096ZM13.1337 6.1005C13.4952 5.865 13.4315 5.25 13.0002 5.25C11.8425 5.25013 10.7043 5.54803 9.69494 6.11505C8.6856 6.68208 7.83906 7.49918 7.23668 8.48783C6.6343 9.47648 6.29632 10.6034 6.25523 11.7604C6.21414 12.9174 6.47132 14.0655 7.00204 15.0944C7.53277 16.1233 8.31921 16.9984 9.28579 17.6356C10.2524 18.2728 11.3666 18.6507 12.5214 18.7329C13.6761 18.8152 14.8327 18.5991 15.8798 18.1053C16.9269 17.6116 17.8295 16.8568 18.5007 15.9135C18.7257 15.5985 18.317 15.2287 17.9577 15.3735C16.7472 15.8628 15.3978 15.8835 14.1729 15.4315C12.948 14.9796 11.9355 14.0874 11.3329 12.9292C10.7303 11.7709 10.5809 10.4297 10.9138 9.16721C11.2468 7.90474 12.0383 6.81165 13.1337 6.10125" fill="white"/>
</svg>
