<svg width="24" height="24" viewBox="0 0 24 24" fill="none" xmlns="http://www.w3.org/2000/svg">
<g clip-path="url(#clip0_434_1694)">
<path d="M12 6.15508C12.1326 6.15508 12.2598 6.1024 12.3536 6.00863C12.4473 5.91486 12.5 5.78769 12.5 5.65508V3.95508C12.5 3.82247 12.4473 3.69529 12.3536 3.60152C12.2598 3.50776 12.1326 3.45508 12 3.45508C11.8674 3.45508 11.7402 3.50776 11.6464 3.60152C11.5527 3.69529 11.5 3.82247 11.5 3.95508V5.65508C11.5 5.78769 11.5527 5.91486 11.6464 6.00863C11.7402 6.1024 11.8674 6.15508 12 6.15508Z" fill="white"/>
<path d="M12 17.8457C11.8674 17.8457 11.7402 17.8984 11.6464 17.9921C11.5527 18.0859 11.5 18.2131 11.5 18.3457V20.0457C11.5 20.1783 11.5527 20.3055 11.6464 20.3993C11.7402 20.493 11.8674 20.5457 12 20.5457C12.1326 20.5457 12.2598 20.493 12.3536 20.3993C12.4473 20.3055 12.5 20.1783 12.5 20.0457V18.3457C12.5 18.2131 12.4473 18.0859 12.3536 17.9921C12.2598 17.8984 12.1326 17.8457 12 17.8457Z" fill="white"/>
<path d="M7.16007 7.87007C7.25305 7.95459 7.37443 8.001 7.50007 8.00007C7.56588 8.00045 7.63111 7.98784 7.69203 7.96296C7.75294 7.93808 7.80835 7.90141 7.85507 7.85507C7.90194 7.80859 7.93913 7.75329 7.96452 7.69236C7.9899 7.63143 8.00297 7.56608 8.00297 7.50007C8.00297 7.43407 7.9899 7.36871 7.96452 7.30778C7.93913 7.24685 7.90194 7.19155 7.85507 7.14507L6.66507 5.96007C6.56942 5.87816 6.44638 5.83536 6.32055 5.84022C6.19471 5.84508 6.07534 5.89724 5.98629 5.98629C5.89724 6.07534 5.84508 6.19471 5.84022 6.32055C5.83536 6.44638 5.87816 6.56942 5.96007 6.66507L7.16007 7.87007Z" fill="white"/>
<path d="M16.84 16.1295C16.7933 16.0828 16.738 16.0459 16.6771 16.0206C16.6162 15.9954 16.5509 15.9824 16.485 15.9824C16.419 15.9824 16.3537 15.9954 16.2928 16.0206C16.2319 16.0459 16.1766 16.0828 16.13 16.1295C16.0833 16.1761 16.0464 16.2314 16.0211 16.2923C15.9959 16.3533 15.9829 16.4185 15.9829 16.4845C15.9829 16.5504 15.9959 16.6157 16.0211 16.6766C16.0464 16.7375 16.0833 16.7928 16.13 16.8395L17.335 18.0395C17.3813 18.0867 17.4365 18.1243 17.4974 18.15C17.5584 18.1758 17.6238 18.1892 17.69 18.1895C17.8218 18.1876 17.9476 18.1337 18.04 18.0395C18.1331 17.9458 18.1854 17.8191 18.1854 17.687C18.1854 17.5549 18.1331 17.4281 18.04 17.3345L16.84 16.1295Z" fill="white"/>
<path d="M6.15508 12C6.15508 11.8674 6.1024 11.7402 6.00863 11.6464C5.91486 11.5527 5.78769 11.5 5.65508 11.5H3.95508C3.82247 11.5 3.69529 11.5527 3.60152 11.6464C3.50776 11.7402 3.45508 11.8674 3.45508 12C3.45508 12.1326 3.50776 12.2598 3.60152 12.3536C3.69529 12.4473 3.82247 12.5 3.95508 12.5H5.65508C5.78769 12.5 5.91486 12.4473 6.00863 12.3536C6.1024 12.2598 6.15508 12.1326 6.15508 12Z" fill="white"/>
<path d="M20.0452 11.5H18.3452C18.2126 11.5 18.0854 11.5527 17.9917 11.6464C17.8979 11.7402 17.8452 11.8674 17.8452 12C17.8452 12.1326 17.8979 12.2598 17.9917 12.3536C18.0854 12.4473 18.2126 12.5 18.3452 12.5H20.0452C20.1778 12.5 20.305 12.4473 20.3988 12.3536C20.4925 12.2598 20.5452 12.1326 20.5452 12C20.5452 11.8674 20.4925 11.7402 20.3988 11.6464C20.305 11.5527 20.1778 11.5 20.0452 11.5Z" fill="white"/>
<path d="M7.15992 16.1295L5.95992 17.3345C5.8897 17.4041 5.84172 17.493 5.82203 17.5899C5.80233 17.6868 5.81182 17.7874 5.84928 17.8789C5.88674 17.9704 5.9505 18.0488 6.03249 18.104C6.11449 18.1593 6.21103 18.1891 6.30992 18.1895C6.37607 18.1892 6.44151 18.1758 6.50245 18.15C6.56339 18.1243 6.61861 18.0867 6.66492 18.0395L7.86992 16.8395C7.96407 16.7453 8.01696 16.6176 8.01696 16.4845C8.01696 16.3513 7.96407 16.2236 7.86992 16.1295C7.77576 16.0353 7.64807 15.9824 7.51492 15.9824C7.38176 15.9824 7.25407 16.0353 7.15992 16.1295Z" fill="white"/>
<path d="M16.5 7.99922C16.5658 7.9996 16.631 7.98699 16.6919 7.96211C16.7528 7.93723 16.8082 7.90057 16.855 7.85422L18.055 6.64922C18.1481 6.55554 18.2004 6.42882 18.2004 6.29672C18.2004 6.16463 18.1481 6.03791 18.055 5.94422C17.9613 5.8511 17.8346 5.79883 17.7025 5.79883C17.5704 5.79883 17.4437 5.8511 17.35 5.94422L16.145 7.14422C16.0981 7.19071 16.0609 7.24601 16.0355 7.30694C16.0101 7.36787 15.9971 7.43322 15.9971 7.49922C15.9971 7.56523 16.0101 7.63058 16.0355 7.69151C16.0609 7.75244 16.0981 7.80774 16.145 7.85422C16.1917 7.90057 16.2471 7.93723 16.308 7.96211C16.3689 7.98699 16.4342 7.9996 16.5 7.99922Z" fill="white"/>
<path d="M12.0651 6.87542C11.0606 6.86253 10.0751 7.14859 9.23361 7.69725C8.39217 8.2459 7.73287 9.03236 7.33952 9.95666C6.94618 10.881 6.83656 11.9013 7.02459 12.8881C7.21262 13.8749 7.68982 14.7834 8.39551 15.4983C9.10121 16.2132 10.0035 16.7021 10.9878 16.9028C11.972 17.1036 12.9937 17.0071 13.923 16.6258C14.8523 16.2444 15.6473 15.5953 16.2067 14.761C16.7662 13.9267 17.065 12.9449 17.0651 11.9404C17.0717 10.6063 16.5491 9.32398 15.6119 8.37453C14.6746 7.42508 13.3991 6.88599 12.0651 6.87542ZM12.0651 16.0004C11.2582 16.0133 10.4658 15.7858 9.78871 15.3468C9.11162 14.9078 8.58049 14.2773 8.26298 13.5354C7.94546 12.7936 7.85592 11.974 8.00576 11.1811C8.15559 10.3882 8.53803 9.65785 9.10436 9.08302C9.67069 8.5082 10.3953 8.11493 11.1859 7.95331C11.9765 7.79169 12.7973 7.86902 13.5438 8.17545C14.2902 8.48189 14.9286 9.00357 15.3776 9.67405C15.8267 10.3445 16.066 11.1335 16.0651 11.9404C16.0704 13.0085 15.6526 14.0352 14.903 14.796C14.1534 15.5568 13.1331 15.9899 12.0651 16.0004Z" fill="white"/>
</g>
<defs>
<clipPath id="clip0_434_1694">
<rect width="18" height="18" fill="white" transform="translate(3 3)"/>
</clipPath>
</defs>
</svg>
